<mxfile host="app.diagrams.net" modified="2020-11-08T11:08:51.419Z" agent="5.0 (Windows)" etag="g1E9ydrZWlQffupMCcSD" version="13.9.2" type="github">
  <diagram name="Page-1" id="5f0bae14-7c28-e335-631c-24af17079c00">
    <mxGraphModel dx="1422" dy="763" grid="1" gridSize="10" guides="1" tooltips="1" connect="1" arrows="1" fold="1" page="1" pageScale="1" pageWidth="1100" pageHeight="850" background="#ffffff" math="0" shadow="0">
      <root>
        <mxCell id="0" />
        <mxCell id="1" parent="0" />
        <mxCell id="mCeQU3a0SMr_kupnbloG-1" value="&lt;div&gt;Plugin Header FIle (.h)&lt;br&gt;&lt;/div&gt;&lt;div&gt;&lt;br&gt;&lt;/div&gt;" style="verticalAlign=top;align=left;spacingTop=8;spacingLeft=2;spacingRight=12;shape=cube;size=10;direction=south;fontStyle=4;html=1;" vertex="1" parent="1">
          <mxGeometry x="100" y="70" width="280" height="150" as="geometry" />
        </mxCell>
        <mxCell id="mCeQU3a0SMr_kupnbloG-49" style="edgeStyle=orthogonalEdgeStyle;rounded=0;orthogonalLoop=1;jettySize=auto;html=1;dashed=1;" edge="1" parent="1" source="mCeQU3a0SMr_kupnbloG-2" target="mCeQU3a0SMr_kupnbloG-43">
          <mxGeometry relative="1" as="geometry" />
        </mxCell>
        <mxCell id="mCeQU3a0SMr_kupnbloG-2" value="«interface»&lt;br&gt;&lt;div&gt;&lt;b&gt;Load(PluginRegistry&amp;amp;, LoadOptions)&lt;/b&gt;&lt;/div&gt;" style="html=1;" vertex="1" parent="1">
          <mxGeometry x="110" y="110" width="240" height="50" as="geometry" />
        </mxCell>
        <mxCell id="mCeQU3a0SMr_kupnbloG-50" style="edgeStyle=orthogonalEdgeStyle;rounded=0;orthogonalLoop=1;jettySize=auto;html=1;exitX=1;exitY=0.5;exitDx=0;exitDy=0;entryX=0;entryY=0.5;entryDx=0;entryDy=0;dashed=1;" edge="1" parent="1" source="mCeQU3a0SMr_kupnbloG-3" target="mCeQU3a0SMr_kupnbloG-44">
          <mxGeometry relative="1" as="geometry" />
        </mxCell>
        <mxCell id="mCeQU3a0SMr_kupnbloG-3" value="«interface»&lt;br&gt;&lt;div&gt;&lt;b&gt;Unload(&lt;/b&gt;&lt;b&gt;PluginRegistry&amp;amp;, LoadOptions)&lt;/b&gt;&lt;/div&gt;" style="html=1;" vertex="1" parent="1">
          <mxGeometry x="110" y="160" width="240" height="50" as="geometry" />
        </mxCell>
        <mxCell id="mCeQU3a0SMr_kupnbloG-6" value="PluginRegistry&#xa;" style="swimlane;fontStyle=1;align=center;verticalAlign=top;childLayout=stackLayout;horizontal=1;startSize=26;horizontalStack=0;resizeParent=1;resizeParentMax=0;resizeLast=0;collapsible=1;marginBottom=0;strokeColor=#000000;fillColor=#ffffff;" vertex="1" parent="1">
          <mxGeometry x="100" y="270" width="510" height="216" as="geometry" />
        </mxCell>
        <mxCell id="mCeQU3a0SMr_kupnbloG-7" value="+ plugins_: Map&lt;PluginHandle, APIPluginInterface&gt; // for each api type (initially one)" style="text;strokeColor=none;fillColor=none;align=left;verticalAlign=top;spacingLeft=4;spacingRight=4;overflow=hidden;rotatable=0;points=[[0,0.5],[1,0.5]];portConstraint=eastwest;" vertex="1" parent="mCeQU3a0SMr_kupnbloG-6">
          <mxGeometry y="26" width="510" height="34" as="geometry" />
        </mxCell>
        <mxCell id="mCeQU3a0SMr_kupnbloG-56" value="&#xa;" style="text;strokeColor=none;fillColor=none;align=left;verticalAlign=top;spacingLeft=4;spacingRight=4;overflow=hidden;rotatable=0;points=[[0,0.5],[1,0.5]];portConstraint=eastwest;" vertex="1" parent="mCeQU3a0SMr_kupnbloG-6">
          <mxGeometry y="60" width="510" height="6" as="geometry" />
        </mxCell>
        <mxCell id="mCeQU3a0SMr_kupnbloG-8" value="" style="line;strokeWidth=1;fillColor=none;align=left;verticalAlign=middle;spacingTop=-1;spacingLeft=3;spacingRight=3;rotatable=0;labelPosition=right;points=[];portConstraint=eastwest;" vertex="1" parent="mCeQU3a0SMr_kupnbloG-6">
          <mxGeometry y="66" width="510" height="8" as="geometry" />
        </mxCell>
        <mxCell id="mCeQU3a0SMr_kupnbloG-37" value="+ add_plugin(PluginHandle) : result" style="text;strokeColor=none;fillColor=none;align=left;verticalAlign=top;spacingLeft=4;spacingRight=4;overflow=hidden;rotatable=0;points=[[0,0.5],[1,0.5]];portConstraint=eastwest;" vertex="1" parent="mCeQU3a0SMr_kupnbloG-6">
          <mxGeometry y="74" width="510" height="26" as="geometry" />
        </mxCell>
        <mxCell id="mCeQU3a0SMr_kupnbloG-38" value="+ remove_plugin(PluginHandle) : result" style="text;strokeColor=none;fillColor=none;align=left;verticalAlign=top;spacingLeft=4;spacingRight=4;overflow=hidden;rotatable=0;points=[[0,0.5],[1,0.5]];portConstraint=eastwest;" vertex="1" parent="mCeQU3a0SMr_kupnbloG-6">
          <mxGeometry y="100" width="510" height="26" as="geometry" />
        </mxCell>
        <mxCell id="mCeQU3a0SMr_kupnbloG-57" value="+ query_api(APITypeEnum) : APIPluginInterface (multiple overloads)" style="text;strokeColor=none;fillColor=none;align=left;verticalAlign=top;spacingLeft=4;spacingRight=4;overflow=hidden;rotatable=0;points=[[0,0.5],[1,0.5]];portConstraint=eastwest;" vertex="1" parent="mCeQU3a0SMr_kupnbloG-6">
          <mxGeometry y="126" width="510" height="26" as="geometry" />
        </mxCell>
        <mxCell id="mCeQU3a0SMr_kupnbloG-9" value="&#xa;&#xa;" style="text;strokeColor=none;fillColor=none;align=left;verticalAlign=top;spacingLeft=4;spacingRight=4;overflow=hidden;rotatable=0;points=[[0,0.5],[1,0.5]];portConstraint=eastwest;" vertex="1" parent="mCeQU3a0SMr_kupnbloG-6">
          <mxGeometry y="152" width="510" height="14" as="geometry" />
        </mxCell>
        <mxCell id="mCeQU3a0SMr_kupnbloG-20" value="hot reload only" style="shape=note;strokeWidth=2;fontSize=14;size=20;whiteSpace=wrap;html=1;fillColor=#fff2cc;strokeColor=#d6b656;fontColor=#666600;" vertex="1" parent="mCeQU3a0SMr_kupnbloG-6">
          <mxGeometry y="166" width="510" height="16" as="geometry" />
        </mxCell>
        <mxCell id="mCeQU3a0SMr_kupnbloG-21" value="+ poll_plugins() : result&#xa;" style="text;strokeColor=none;fillColor=none;align=left;verticalAlign=top;spacingLeft=4;spacingRight=4;overflow=hidden;rotatable=0;points=[[0,0.5],[1,0.5]];portConstraint=eastwest;" vertex="1" parent="mCeQU3a0SMr_kupnbloG-6">
          <mxGeometry y="182" width="510" height="34" as="geometry" />
        </mxCell>
        <mxCell id="mCeQU3a0SMr_kupnbloG-14" value="PluginDLL" style="swimlane;fontStyle=0;childLayout=stackLayout;horizontal=1;startSize=26;fillColor=none;horizontalStack=0;resizeParent=1;resizeParentMax=0;resizeLast=0;collapsible=1;marginBottom=0;strokeColor=#000000;" vertex="1" parent="1">
          <mxGeometry x="860" y="100" width="140" height="104" as="geometry" />
        </mxCell>
        <mxCell id="mCeQU3a0SMr_kupnbloG-15" value="+ dll_hanld: HANDLE&#xa;" style="text;strokeColor=none;fillColor=none;align=left;verticalAlign=top;spacingLeft=4;spacingRight=4;overflow=hidden;rotatable=0;points=[[0,0.5],[1,0.5]];portConstraint=eastwest;" vertex="1" parent="mCeQU3a0SMr_kupnbloG-14">
          <mxGeometry y="26" width="140" height="26" as="geometry" />
        </mxCell>
        <mxCell id="mCeQU3a0SMr_kupnbloG-16" value="+ dll_path: wstring" style="text;strokeColor=none;fillColor=none;align=left;verticalAlign=top;spacingLeft=4;spacingRight=4;overflow=hidden;rotatable=0;points=[[0,0.5],[1,0.5]];portConstraint=eastwest;" vertex="1" parent="mCeQU3a0SMr_kupnbloG-14">
          <mxGeometry y="52" width="140" height="26" as="geometry" />
        </mxCell>
        <mxCell id="mCeQU3a0SMr_kupnbloG-17" value="+ last_time_stamp: u64" style="text;strokeColor=none;fillColor=none;align=left;verticalAlign=top;spacingLeft=4;spacingRight=4;overflow=hidden;rotatable=0;points=[[0,0.5],[1,0.5]];portConstraint=eastwest;" vertex="1" parent="mCeQU3a0SMr_kupnbloG-14">
          <mxGeometry y="78" width="140" height="26" as="geometry" />
        </mxCell>
        <mxCell id="mCeQU3a0SMr_kupnbloG-18" value="&lt;div&gt;windows only&lt;br&gt;&lt;/div&gt;" style="shape=note;strokeWidth=2;fontSize=14;size=20;whiteSpace=wrap;html=1;fillColor=#fff2cc;strokeColor=#d6b656;fontColor=#666600;" vertex="1" parent="1">
          <mxGeometry x="860" y="80" width="140" height="20" as="geometry" />
        </mxCell>
        <mxCell id="mCeQU3a0SMr_kupnbloG-42" value="PluginHandle" style="swimlane;fontStyle=0;childLayout=stackLayout;horizontal=1;startSize=26;fillColor=none;horizontalStack=0;resizeParent=1;resizeParentMax=0;resizeLast=0;collapsible=1;marginBottom=0;strokeColor=#000000;" vertex="1" parent="1">
          <mxGeometry x="510" y="78" width="250" height="134" as="geometry" />
        </mxCell>
        <mxCell id="mCeQU3a0SMr_kupnbloG-43" value="+ load_callback : load_callback_type" style="text;strokeColor=none;fillColor=none;align=left;verticalAlign=top;spacingLeft=4;spacingRight=4;overflow=hidden;rotatable=0;points=[[0,0.5],[1,0.5]];portConstraint=eastwest;" vertex="1" parent="mCeQU3a0SMr_kupnbloG-42">
          <mxGeometry y="26" width="250" height="34" as="geometry" />
        </mxCell>
        <mxCell id="mCeQU3a0SMr_kupnbloG-44" value="+ unload_callback : unload_callback_type" style="text;strokeColor=none;fillColor=none;align=left;verticalAlign=top;spacingLeft=4;spacingRight=4;overflow=hidden;rotatable=0;points=[[0,0.5],[1,0.5]];portConstraint=eastwest;" vertex="1" parent="mCeQU3a0SMr_kupnbloG-42">
          <mxGeometry y="60" width="250" height="30" as="geometry" />
        </mxCell>
        <mxCell id="mCeQU3a0SMr_kupnbloG-46" value="&lt;div&gt;windows only&lt;br&gt;&lt;/div&gt;" style="shape=note;strokeWidth=2;fontSize=14;size=20;whiteSpace=wrap;html=1;fillColor=#fff2cc;strokeColor=#d6b656;fontColor=#666600;" vertex="1" parent="mCeQU3a0SMr_kupnbloG-42">
          <mxGeometry y="90" width="250" height="18" as="geometry" />
        </mxCell>
        <mxCell id="mCeQU3a0SMr_kupnbloG-45" value="+ dll : PluginDLL" style="text;strokeColor=none;fillColor=none;align=left;verticalAlign=top;spacingLeft=4;spacingRight=4;overflow=hidden;rotatable=0;points=[[0,0.5],[1,0.5]];portConstraint=eastwest;" vertex="1" parent="mCeQU3a0SMr_kupnbloG-42">
          <mxGeometry y="108" width="250" height="26" as="geometry" />
        </mxCell>
        <mxCell id="mCeQU3a0SMr_kupnbloG-54" style="edgeStyle=orthogonalEdgeStyle;rounded=0;orthogonalLoop=1;jettySize=auto;html=1;exitX=1;exitY=0.5;exitDx=0;exitDy=0;entryX=0.002;entryY=0.119;entryDx=0;entryDy=0;entryPerimeter=0;strokeColor=#000000;" edge="1" parent="1" source="mCeQU3a0SMr_kupnbloG-45" target="mCeQU3a0SMr_kupnbloG-14">
          <mxGeometry relative="1" as="geometry" />
        </mxCell>
      </root>
    </mxGraphModel>
  </diagram>
</mxfile>
